<svg xmlns="http://www.w3.org/2000/svg" width="36" height="36" viewBox="0 0 36 36" fill="none">
<path d="M0 17.1147C0 9.04678 0 5.01279 2.5064 2.5064C5.01279 0 9.04677 0 17.1147 0H18.8852C26.9532 0 30.9872 0 33.4936 2.5064C36 5.01279 36 9.04677 36 17.1147V18.8852C36 26.9532 36 30.9872 33.4936 33.4936C30.9872 36 26.9532 36 18.8852 36H17.1147C9.04678 36 5.01279 36 2.5064 33.4936C0 30.9872 0 26.9532 0 18.8852V17.1147Z" fill="#0077FF"/>
<path d="M35.9165 10.4219C36.0034 12.2817 36.0034 14.4835 36.0034 17.1143V18.8848C36.0034 26.9527 36.0034 30.9867 33.497 33.4931C30.9906 35.9995 26.9566 35.9995 18.8886 35.9995H17.1181C9.05017 35.9995 5.01619 35.9995 2.50979 33.4931C1.65959 32.6429 1.09779 31.617 0.726562 30.3174L13.067 17.9749C13.9642 17.0776 15.4199 17.0813 16.3126 17.983L18.911 20.608C20.8606 22.5775 24.0455 22.5674 25.9826 20.5855L35.9165 10.4219Z" fill="#00D3E6"/>
<path d="M1.01606 31.1888C0.402519 29.6397 0.159086 27.6561 0.0625 25.0148L11.069 14.0082C12.9031 12.1741 15.8791 12.1816 17.7041 14.0248L20.1354 16.4807C20.9845 17.3382 22.3714 17.3338 23.215 16.4709L34.8713 4.54688C35.5411 6.07491 35.813 8.0407 35.9235 10.6805L25.0284 21.8258C23.2007 23.6954 20.1956 23.705 18.356 21.8469L15.9043 19.3706C15.0621 18.5198 13.6885 18.5164 12.842 19.3629L1.01606 31.1888Z" fill="white"/>
</svg>